<svg width="100" height="81" viewBox="0 0 100 81" fill="none" xmlns="http://www.w3.org/2000/svg">
<path d="M8.00653 53.0791L13.6341 43.4343H16.0131L9.33549 54.7916H6.67758L0 43.4343H2.3954L8.00653 53.0791Z" fill="white"/>
<path d="M21.577 53.3538C22.7474 53.3538 23.6498 53.2084 24.2842 52.9176C24.9295 52.6268 25.3889 52.2121 25.6623 51.6736H27.8773C27.5819 52.7614 26.8819 53.6069 25.7772 54.21C24.6724 54.8131 23.2669 55.1147 21.5606 55.1147C19.5043 55.1147 17.8636 54.6947 16.6386 53.8546C15.4135 53.0037 14.801 51.749 14.801 50.0903C14.801 48.981 15.0854 48.0494 15.6542 47.2954C16.2339 46.5415 17.0214 45.9815 18.0167 45.6153C19.0121 45.2383 20.1387 45.0498 21.3966 45.0498C23.431 45.0498 25.0443 45.4806 26.2366 46.3423C27.4288 47.2039 28.0249 48.6202 28.0249 50.5912H17.0323C17.1417 51.5497 17.5738 52.2498 18.3285 52.6914C19.0941 53.133 20.177 53.3538 21.577 53.3538ZM21.3966 46.7785C19.023 46.7785 17.612 47.5001 17.1636 48.9433H25.6787C25.4709 48.2001 25.0061 47.6562 24.2842 47.3116C23.5732 46.9562 22.6107 46.7785 21.3966 46.7785Z" fill="white"/>
<path d="M36.3022 45.0498C37.21 45.0498 38.0741 45.1683 38.8944 45.4052V47.2147C38.0194 46.9885 37.1717 46.8754 36.3514 46.8754C35.5967 46.8754 34.8529 47.01 34.12 47.2793C33.3872 47.5378 32.545 48.0332 31.5934 48.7656V54.7916H29.5425V45.3729H31.5934V47.0531C32.3481 46.2992 33.0974 45.7768 33.8411 45.486C34.5958 45.1952 35.4162 45.0498 36.3022 45.0498Z" fill="white"/>
<path d="M50.7397 41.8672H52.7905V54.7916H50.7397V53.1599C50.2475 53.7953 49.5693 54.28 48.7052 54.6139C47.8411 54.9478 46.8075 55.1147 45.6043 55.1147C44.434 55.1147 43.3894 54.9316 42.4706 54.5654C41.5518 54.1885 40.8245 53.623 40.2885 52.8691C39.7635 52.1152 39.501 51.1889 39.501 50.0903C39.501 48.981 39.7635 48.0494 40.2885 47.2954C40.8245 46.5415 41.5518 45.9815 42.4706 45.6153C43.3894 45.2383 44.434 45.0498 45.6043 45.0498C46.8075 45.0498 47.8411 45.2168 48.7052 45.5506C49.5693 45.8845 50.2475 46.3692 50.7397 47.0046V41.8672ZM46.1622 53.3214C47.606 53.3214 48.7271 53.036 49.5255 52.4652C50.3349 51.8836 50.7397 51.092 50.7397 50.0903C50.7397 49.0887 50.3349 48.3025 49.5255 47.7316C48.7271 47.15 47.606 46.8592 46.1622 46.8592C44.7184 46.8592 43.6136 47.1447 42.848 47.7155C42.0933 48.2863 41.7159 49.0779 41.7159 50.0903C41.7159 51.1028 42.0933 51.8944 42.848 52.4652C43.6136 53.036 44.7184 53.3214 46.1622 53.3214Z" fill="white"/>
<path d="M54.6431 44.129V41.8672H56.6939V44.129H54.6431ZM54.6431 54.7916V45.3729H56.6939V54.7916H54.6431Z" fill="white"/>
<path d="M69.576 45.3729H71.8729L65.9993 55.664C65.5727 56.4287 65.1516 57.048 64.736 57.5219C64.3203 57.9958 63.8391 58.3566 63.2922 58.6043C62.7453 58.8628 62.0945 58.992 61.3397 58.992C60.771 58.992 60.2569 58.9651 59.7975 58.9113C59.3381 58.8574 58.8076 58.7766 58.206 58.6689V56.908C59.2014 57.1126 60.1202 57.2149 60.9624 57.2149C61.6515 57.2149 62.2202 57.0641 62.6687 56.7626C63.1172 56.461 63.5601 55.9225 63.9977 55.147L64.1945 54.7916H63.0296L57.6318 45.3729H59.978L64.7852 53.7576L69.576 45.3729Z" fill="white"/>
<path d="M78.7911 45.0498C80.1912 45.0498 81.3396 45.206 82.2365 45.5183C83.1334 45.8307 83.8116 46.3477 84.271 47.0693C84.7413 47.7909 84.9819 48.7602 84.9929 49.9773V54.7916H82.942V53.6284C81.8154 54.0915 80.7435 54.4523 79.7263 54.7108C78.72 54.9693 77.6372 55.0986 76.4777 55.0986C74.9683 55.0986 73.8308 54.8347 73.0651 54.3069C72.3104 53.7684 71.933 52.9553 71.933 51.8675C71.933 50.715 72.469 49.8749 73.5409 49.3472C74.6128 48.8194 76.0129 48.5556 77.7411 48.5556C79.4255 48.5556 81.1592 48.8087 82.942 49.3149C82.9202 48.3132 82.4553 47.6455 81.5474 47.3116C80.6505 46.9669 79.6661 46.7946 78.5942 46.7946C77.8176 46.7946 77.0192 46.8539 76.1988 46.9723C75.3894 47.0908 74.487 47.3062 73.4917 47.6186L72.737 46.0192C73.787 45.696 74.7933 45.4537 75.7558 45.2922C76.7293 45.1306 77.7411 45.0498 78.7911 45.0498ZM77.1012 53.3538C77.845 53.3538 78.7528 53.2245 79.8247 52.966C80.9076 52.6968 81.9467 52.379 82.942 52.0129V50.9951C82.1545 50.7689 81.3506 50.5912 80.5302 50.4619C79.7208 50.3219 78.8349 50.2519 77.8723 50.2519C76.702 50.2519 75.7887 50.3811 75.1324 50.6396C74.4761 50.8981 74.148 51.3074 74.148 51.8675C74.148 52.4491 74.3941 52.8422 74.8863 53.0468C75.3785 53.2514 76.1168 53.3538 77.1012 53.3538Z" fill="white"/>
<path d="M86.6941 54.7916V45.3729H88.7449V47.4732C89.3684 46.6761 90.145 46.073 91.0747 45.6637C92.0044 45.2545 93.1255 45.0498 94.4381 45.0498C96.1991 45.0498 97.5609 45.4483 98.5234 46.2453C99.4859 47.0423 99.9781 48.324 100 50.0903V54.7916H97.9492V50.5427C97.9492 49.2826 97.6429 48.3563 97.0304 47.764C96.4288 47.1608 95.3842 46.8592 93.8967 46.8592C92.3435 46.8592 91.0966 47.2147 90.1559 47.9255C89.2153 48.6363 88.7449 49.6757 88.7449 51.0435V54.7916H86.6941Z" fill="white"/>
<path d="M50.7148 71.2382V58.3138H52.7657V71.2382H50.7148Z" fill="white"/>
<path d="M61.0884 69.8004C62.2588 69.8004 63.1612 69.655 63.7956 69.3642C64.4409 69.0734 64.9003 68.6587 65.1737 68.1202H67.3887C67.0933 69.208 66.3933 70.0535 65.2886 70.6566C64.1839 71.2597 62.7783 71.5613 61.072 71.5613C59.0157 71.5613 57.375 71.1413 56.15 70.3012C54.9249 69.4503 54.3124 68.1956 54.3124 66.5369C54.3124 65.4276 54.5968 64.496 55.1656 63.742C55.7453 62.9881 56.5328 62.4281 57.5282 62.0619C58.5235 61.6849 59.6501 61.4964 60.908 61.4964C62.9424 61.4964 64.5557 61.9272 65.748 62.7889C66.9402 63.6505 67.5363 65.0668 67.5363 67.0378H56.5437C56.6531 67.9963 57.0852 68.6964 57.8399 69.138C58.6055 69.5796 59.6884 69.8004 61.0884 69.8004ZM60.908 63.2251C58.5344 63.2251 57.1235 63.9467 56.675 65.3899H65.1901C64.9823 64.6468 64.5175 64.1029 63.7956 63.7582C63.0846 63.4028 62.1221 63.2251 60.908 63.2251Z" fill="white"/>
<path d="M79.8398 61.8195H81.8906V70.0265C81.8906 71.9006 81.3601 73.2684 80.2992 74.13C79.2382 75.0024 77.7014 75.4386 75.6889 75.4386C73.7419 75.4386 71.7075 75.1855 69.5855 74.6793L69.6511 72.983C70.7887 73.1984 71.7567 73.3654 72.5552 73.4838C73.3646 73.6023 74.2177 73.6615 75.1146 73.6615C76.3178 73.6615 77.2584 73.5161 77.9366 73.2253C78.6257 72.9345 79.1124 72.4983 79.3968 71.9167C79.6921 71.3351 79.8398 70.5704 79.8398 69.6227C79.3585 70.2366 78.6968 70.7105 77.8546 71.0443C77.0233 71.3675 76.0225 71.529 74.8521 71.529C73.6708 71.529 72.6098 71.3459 71.6692 70.9797C70.7285 70.6135 69.9793 70.0589 69.4214 69.3157C68.8745 68.5618 68.6011 67.6248 68.6011 66.5046C68.6011 65.3953 68.8745 64.469 69.4214 63.7259C69.9793 62.972 70.7285 62.4119 71.6692 62.0457C72.6098 61.6795 73.6708 61.4964 74.8521 61.4964C76.0225 61.4964 77.0233 61.6634 77.8546 61.9973C78.6968 62.3204 79.3585 62.7889 79.8398 63.4028V61.8195ZM75.3279 69.7196C76.7826 69.7196 77.8983 69.4342 78.6749 68.8633C79.4515 68.2925 79.8398 67.5063 79.8398 66.5046C79.8398 65.5138 79.4515 64.7329 78.6749 64.1621C77.8983 63.5913 76.7826 63.3058 75.3279 63.3058C73.8732 63.3058 72.7575 63.5913 71.9809 64.1621C71.2043 64.7329 70.816 65.5138 70.816 66.5046C70.816 67.5063 71.2043 68.2925 71.9809 68.8633C72.7575 69.4342 73.8732 69.7196 75.3279 69.7196Z" fill="white"/>
<path d="M90.1129 61.4964C91.5129 61.4964 92.6614 61.6526 93.5583 61.9649C94.4552 62.2773 95.1334 62.7943 95.5928 63.5159C96.0631 64.2375 96.3037 65.2068 96.3147 66.4239V71.2382H94.2638V70.075C93.1372 70.5381 92.0653 70.8989 91.0481 71.1574C90.0418 71.4159 88.9589 71.5452 87.7995 71.5452C86.2901 71.5452 85.1526 71.2813 84.3869 70.7535C83.6322 70.215 83.2548 69.4019 83.2548 68.3141C83.2548 67.1616 83.7908 66.3215 84.8627 65.7938C85.9346 65.2661 87.3347 65.0022 89.0629 65.0022C90.7473 65.0022 92.4809 65.2553 94.2638 65.7615C94.2419 64.7598 93.7771 64.0921 92.8692 63.7582C91.9723 63.4136 90.9879 63.2412 89.916 63.2412C89.1394 63.2412 88.3409 63.3005 87.5206 63.4189C86.7112 63.5374 85.8088 63.7528 84.8135 64.0652L84.0588 62.4658C85.1088 62.1427 86.1151 61.9003 87.0776 61.7388C88.0511 61.5772 89.0629 61.4964 90.1129 61.4964ZM88.423 69.8004C89.1668 69.8004 90.0746 69.6711 91.1465 69.4126C92.2294 69.1434 93.2685 68.8257 94.2638 68.4595V67.4417C93.4763 67.2155 92.6723 67.0378 91.852 66.9085C91.0426 66.7685 90.1566 66.6985 89.1941 66.6985C88.0237 66.6985 87.1104 66.8277 86.4542 67.0862C85.7979 67.3447 85.4697 67.754 85.4697 68.3141C85.4697 68.8957 85.7159 69.2888 86.2081 69.4934C86.7003 69.698 87.4386 69.8004 88.423 69.8004Z" fill="white"/>
<path d="M97.8716 71.2382V58.3138H99.9225V71.2382H97.8716Z" fill="white"/>
<path d="M99.9297 6.11553L89.2798 0L89.269 12.2332L99.9297 6.11553Z" fill="white"/>
<path d="M78.6445 31.3207L99.9291 19.1172V31.3105L89.2741 37.4225L78.6445 31.3207Z" fill="#475467"/>
<path d="M78.618 18.3488L99.9323 6.11719L99.9323 18.3216L78.6172 30.5559L78.618 18.3488Z" fill="#9099A8"/>
</svg>
