<svg width="588" height="1030" viewBox="0 0 588 1030" fill="none" xmlns="http://www.w3.org/2000/svg">
<path d="M583.672 576.385C583.672 557.745 563.515 546.071 547.339 555.342L44.0149 843.822C27.7592 853.139 27.7533 876.576 44.0042 885.902L281.982 1022.46C289.461 1026.75 298.656 1026.76 306.136 1022.47L571.481 870.312C579.022 865.988 583.672 857.962 583.672 849.272V576.385ZM583.681 491.898L583.682 218.722C583.682 200.078 563.516 188.404 547.34 197.684L547.334 197.687L547.329 197.69L35.6102 487.214C23.9746 493.814 16.2837 499.61 11.4124 507.57C6.54637 515.522 4.31867 525.929 4.31867 542.123V796.473C4.31753 815.119 24.4853 826.794 40.6621 817.512L571.496 512.935C579.033 508.61 583.681 500.586 583.681 491.898ZM292.01 28.5904C292.029 6.63559 315.781 -7.09587 334.827 3.83703L546.999 125.631C566.135 136.616 566.131 164.213 546.992 175.192L334.606 297.029C315.541 307.966 291.777 294.195 291.796 272.221L292.01 28.5904ZM332.676 7.58083C316.508 -1.70018 296.345 9.95641 296.329 28.594L296.115 272.225C296.098 290.878 316.272 302.569 332.456 293.284L544.842 171.448C561.089 162.127 561.093 138.7 544.848 129.375L332.676 7.58083ZM587.991 849.272C587.991 859.509 582.512 868.963 573.63 874.057L308.285 1026.21C299.474 1031.26 288.642 1031.26 279.832 1026.21L41.854 889.646C22.7107 878.661 22.718 851.053 41.867 840.077L545.19 551.597C564.246 540.676 587.991 554.427 587.991 576.385V849.272ZM588 491.898C588 502.132 582.524 511.585 573.645 516.679L42.8117 821.256C23.9046 832.104 0.369519 818.651 0.00421745 796.986L0 796.473V542.123C0 525.605 2.25582 514.261 7.72832 505.317C13.1953 496.383 21.6974 490.141 33.4811 483.458L33.4833 483.457L545.201 193.933C564.255 183.013 588 196.764 588 218.722L588 491.898Z" fill="url(#paint0_linear_3367_9054)"/>
<defs>
<linearGradient id="paint0_linear_3367_9054" x1="397.059" y1="-120.145" x2="294.679" y2="843.544" gradientUnits="userSpaceOnUse">
<stop stop-color="#0E1228"/>
<stop offset="0.89208" stop-color="#7039FF"/>
</linearGradient>
</defs>
</svg>
