<svg width="765" height="878" viewBox="0 0 765 878" fill="none" xmlns="http://www.w3.org/2000/svg">
<g clip-path="url(#clip0_4906_6506)">
<path d="M749.656 711.248C749.656 688.246 724.768 673.841 704.796 685.281L83.345 1041.26C63.2741 1052.76 63.2669 1081.68 83.3318 1093.19L377.162 1261.7C386.396 1267 397.749 1267 406.984 1261.7L734.604 1073.95C743.914 1068.61 749.656 1058.71 749.656 1047.98V711.248ZM749.667 606.992L749.668 269.899C749.668 246.892 724.77 232.487 704.797 243.938L704.79 243.942L704.783 243.946L72.9677 601.213C58.6013 609.356 49.1054 616.508 43.0908 626.332C37.0828 636.144 34.3322 648.986 34.3322 668.969V982.833C34.3308 1005.84 59.2318 1020.25 79.2052 1008.79L734.622 632.952C743.928 627.615 749.667 617.713 749.667 606.992ZM389.543 35.28C389.567 8.18818 418.893 -8.75617 442.409 4.73482L704.376 155.027C728.003 168.581 727.998 202.636 704.367 216.184L442.136 366.528C418.596 380.024 389.255 363.031 389.279 335.916L389.543 35.28ZM439.754 9.3546C419.791 -2.09799 394.896 12.286 394.875 35.2844L394.611 335.92C394.591 358.938 419.499 373.364 439.482 361.907L701.713 211.563C721.774 200.062 721.778 171.153 701.721 159.646L439.754 9.3546ZM754.988 1047.98C754.988 1060.62 748.224 1072.28 737.257 1078.57L409.637 1266.33C398.758 1272.56 385.384 1272.56 374.507 1266.32L80.6769 1097.81C57.0408 1084.25 57.0498 1050.18 80.6929 1036.64L702.143 680.66C725.671 667.183 754.988 684.153 754.988 711.248V1047.98ZM755 606.992C755 619.621 748.239 631.286 737.276 637.572L81.8593 1013.41C58.5148 1026.8 29.4562 1010.2 29.0052 983.466L29 982.832V668.969C29 648.587 31.7852 634.588 38.5421 623.552C45.2922 612.528 55.7897 604.825 70.3388 596.578L70.3417 596.576L702.157 239.309C725.682 225.835 755 242.803 755 269.899L755 606.992Z" fill="url(#paint0_linear_4906_6506)"/>
</g>
<defs>
<linearGradient id="paint0_linear_4906_6506" x1="380" y1="380" x2="392.546" y2="1040.82" gradientUnits="userSpaceOnUse">
<stop stop-color="#0E1228"/>
<stop offset="0.89208" stop-color="#7039FF"/>
</linearGradient>
<clipPath id="clip0_4906_6506">
<rect width="765" height="878" fill="white"/>
</clipPath>
</defs>
</svg>
