<svg width="101" height="80" viewBox="0 0 101 80" fill="none" xmlns="http://www.w3.org/2000/svg">
<path d="M8.00653 55.4752L13.6341 45.7585H16.0131L9.33549 57.2004H6.67758L0 45.7585H2.3954L8.00653 55.4752Z" fill="#21253E"/>
<path d="M21.577 55.7519C22.7474 55.7519 23.6498 55.6054 24.2842 55.3124C24.9295 55.0195 25.3889 54.6017 25.6623 54.0592H27.8773C27.5819 55.1551 26.8819 56.0069 25.7772 56.6145C24.6724 57.2221 23.2669 57.5259 21.5606 57.5259C19.5043 57.5259 17.8636 57.1028 16.6386 56.2564C15.4135 55.3992 14.801 54.1351 14.801 52.4641C14.801 51.3465 15.0854 50.4079 15.6542 49.6484C16.2339 48.8889 17.0214 48.3246 18.0167 47.9557C19.0121 47.5759 20.1387 47.386 21.3966 47.386C23.431 47.386 25.0443 47.8201 26.2366 48.6881C27.4288 49.5562 28.0249 50.983 28.0249 52.9687H17.0323C17.1417 53.9344 17.5738 54.6397 18.3285 55.0846C19.0941 55.5294 20.177 55.7519 21.577 55.7519ZM21.3966 49.1276C19.023 49.1276 17.612 49.8546 17.1636 51.3085H25.6787C25.4709 50.5598 25.0061 50.0119 24.2842 49.6647C23.5732 49.3066 22.6107 49.1276 21.3966 49.1276Z" fill="#21253E"/>
<path d="M36.3022 47.386C37.21 47.386 38.0741 47.5054 38.8944 47.7441V49.567C38.0194 49.3392 37.1717 49.2252 36.3514 49.2252C35.5967 49.2252 34.8529 49.3609 34.12 49.6321C33.3872 49.8925 32.545 50.3917 31.5934 51.1295V57.2004H29.5425V47.7116H31.5934V49.4043C32.3481 48.6447 33.0974 48.1185 33.8411 47.8255C34.5958 47.5325 35.4162 47.386 36.3022 47.386Z" fill="#21253E"/>
<path d="M50.7397 44.1797H52.7905V57.2004H50.7397V55.5566C50.2475 56.1967 49.5693 56.685 48.7052 57.0214C47.8411 57.3578 46.8075 57.5259 45.6043 57.5259C44.434 57.5259 43.3894 57.3415 42.4706 56.9726C41.5518 56.5928 40.8245 56.0231 40.2885 55.2636C39.7635 54.504 39.501 53.5709 39.501 52.4641C39.501 51.3465 39.7635 50.4079 40.2885 49.6484C40.8245 48.8889 41.5518 48.3246 42.4706 47.9557C43.3894 47.5759 44.434 47.386 45.6043 47.386C46.8075 47.386 47.8411 47.5542 48.7052 47.8906C49.5693 48.227 50.2475 48.7152 50.7397 49.3554V44.1797ZM46.1622 55.7193C47.606 55.7193 48.7271 55.4318 49.5255 54.8567C50.3349 54.2708 50.7397 53.4732 50.7397 52.4641C50.7397 51.455 50.3349 50.6629 49.5255 50.0878C48.7271 49.5019 47.606 49.2089 46.1622 49.2089C44.7184 49.2089 43.6136 49.4965 42.848 50.0716C42.0933 50.6467 41.7159 51.4442 41.7159 52.4641C41.7159 53.4841 42.0933 54.2816 42.848 54.8567C43.6136 55.4318 44.7184 55.7193 46.1622 55.7193Z" fill="#21253E"/>
<path d="M54.6431 46.4583V44.1797H56.6939V46.4583H54.6431ZM54.6431 57.2004V47.7116H56.6939V57.2004H54.6431Z" fill="#21253E"/>
<path d="M69.576 47.7116H71.8729L65.9993 58.0793C65.5727 58.8497 65.1516 59.4736 64.736 59.9511C64.3203 60.4285 63.8391 60.792 63.2922 61.0415C62.7453 61.302 62.0945 61.4322 61.3397 61.4322C60.771 61.4322 60.2569 61.405 59.7975 61.3508C59.3381 61.2965 58.8076 61.2151 58.206 61.1066V59.3326C59.2014 59.5387 60.1202 59.6418 60.9624 59.6418C61.6515 59.6418 62.2202 59.4899 62.6687 59.1861C63.1172 58.8823 63.5601 58.3397 63.9977 57.5585L64.1945 57.2004H63.0296L57.6318 47.7116H59.978L64.7852 56.1588L69.576 47.7116Z" fill="#21253E"/>
<path d="M78.7911 47.386C80.1912 47.386 81.3396 47.5434 82.2365 47.858C83.1334 48.1727 83.8116 48.6935 84.271 49.4205C84.7413 50.1475 84.9819 51.1241 84.9929 52.3502V57.2004H82.942V56.0286C81.8154 56.4951 80.7435 56.8586 79.7263 57.119C78.72 57.3795 77.6372 57.5097 76.4777 57.5097C74.9683 57.5097 73.8308 57.2438 73.0651 56.7121C72.3104 56.1696 71.933 55.3504 71.933 54.2545C71.933 53.0935 72.469 52.2471 73.5409 51.7154C74.6128 51.1838 76.0129 50.9179 77.7411 50.9179C79.4255 50.9179 81.1592 51.1729 82.942 51.6829C82.9202 50.6738 82.4553 50.001 81.5474 49.6647C80.6505 49.3175 79.6661 49.1438 78.5942 49.1438C77.8176 49.1438 77.0192 49.2035 76.1988 49.3229C75.3894 49.4422 74.487 49.6592 73.4917 49.9739L72.737 48.3626C73.787 48.0371 74.7933 47.7929 75.7558 47.6302C76.7293 47.4674 77.7411 47.386 78.7911 47.386ZM77.1012 55.7519C77.845 55.7519 78.7528 55.6217 79.8247 55.3612C80.9076 55.09 81.9467 54.7699 82.942 54.401V53.3756C82.1545 53.1477 81.3506 52.9687 80.5302 52.8385C79.7208 52.6974 78.8349 52.6269 77.8723 52.6269C76.702 52.6269 75.7887 52.7571 75.1324 53.0175C74.4761 53.2779 74.148 53.6902 74.148 54.2545C74.148 54.8404 74.3941 55.2365 74.8863 55.4426C75.3785 55.6488 76.1168 55.7519 77.1012 55.7519Z" fill="#21253E"/>
<path d="M86.6941 57.2004V47.7116H88.7449V49.8274C89.3684 49.0245 90.145 48.4169 91.0747 48.0045C92.0044 47.5922 93.1255 47.386 94.4381 47.386C96.1991 47.386 97.5609 47.7875 98.5234 48.5905C99.4859 49.3934 99.9781 50.6846 100 52.4641V57.2004H97.9492V52.9199C97.9492 51.6503 97.6429 50.7172 97.0304 50.1204C96.4288 49.5128 95.3842 49.2089 93.8967 49.2089C92.3435 49.2089 91.0966 49.567 90.1559 50.2832C89.2153 50.9993 88.7449 52.0464 88.7449 53.4244V57.2004H86.6941Z" fill="#21253E"/>
<path d="M50.7148 73.7696V60.7489H52.7657V73.7696H50.7148Z" fill="#21253E"/>
<path d="M61.0884 72.321C62.2588 72.321 63.1612 72.1746 63.7956 71.8816C64.4409 71.5886 64.9003 71.1709 65.1737 70.6283H67.3887C67.0933 71.7243 66.3933 72.576 65.2886 73.1837C64.1839 73.7913 62.7783 74.0951 61.072 74.0951C59.0157 74.0951 57.375 73.6719 56.15 72.8256C54.9249 71.9684 54.3124 70.7043 54.3124 69.0333C54.3124 67.9157 54.5968 66.9771 55.1656 66.2176C55.7453 65.458 56.5328 64.8938 57.5282 64.5249C58.5235 64.1451 59.6501 63.9552 60.908 63.9552C62.9424 63.9552 64.5557 64.3892 65.748 65.2573C66.9402 66.1253 67.5363 67.5522 67.5363 69.5379H56.5437C56.6531 70.5036 57.0852 71.2089 57.8399 71.6537C58.6055 72.0986 59.6884 72.321 61.0884 72.321ZM60.908 65.6967C58.5344 65.6967 57.1235 66.4237 56.675 67.8777H65.1901C64.9823 67.129 64.5175 66.5811 63.7956 66.2339C63.0846 65.8758 62.1221 65.6967 60.908 65.6967Z" fill="#21253E"/>
<path d="M79.8398 64.2807H81.8906V72.5489C81.8906 74.4369 81.3601 75.8149 80.2992 76.683C79.2382 77.5619 77.7014 78.0013 75.6889 78.0013C73.7419 78.0013 71.7075 77.7463 69.5855 77.2364L69.6511 75.5274C70.7887 75.7444 71.7567 75.9126 72.5552 76.032C73.3646 76.1513 74.2177 76.211 75.1146 76.211C76.3178 76.211 77.2584 76.0645 77.9366 75.7715C78.6257 75.4786 79.1124 75.0391 79.3968 74.4532C79.6921 73.8673 79.8398 73.0969 79.8398 72.142C79.3585 72.7605 78.6968 73.2379 77.8546 73.5743C77.0233 73.8998 76.0225 74.0626 74.8521 74.0626C73.6708 74.0626 72.6098 73.8781 71.6692 73.5092C70.7285 73.1403 69.9793 72.5815 69.4214 71.8328C68.8745 71.0732 68.6011 70.1292 68.6011 69.0008C68.6011 67.8831 68.8745 66.95 69.4214 66.2013C69.9793 65.4418 70.7285 64.8775 71.6692 64.5086C72.6098 64.1397 73.6708 63.9552 74.8521 63.9552C76.0225 63.9552 77.0233 64.1234 77.8546 64.4598C78.6968 64.7853 79.3585 65.2573 79.8398 65.8758V64.2807ZM75.3279 72.2397C76.7826 72.2397 77.8983 71.9521 78.6749 71.377C79.4515 70.802 79.8398 70.0099 79.8398 69.0008C79.8398 68.0025 79.4515 67.2158 78.6749 66.6407C77.8983 66.0657 76.7826 65.7781 75.3279 65.7781C73.8732 65.7781 72.7575 66.0657 71.9809 66.6407C71.2043 67.2158 70.816 68.0025 70.816 69.0008C70.816 70.0099 71.2043 70.802 71.9809 71.377C72.7575 71.9521 73.8732 72.2397 75.3279 72.2397Z" fill="#21253E"/>
<path d="M90.1129 63.9552C91.5129 63.9552 92.6614 64.1126 93.5583 64.4272C94.4552 64.7419 95.1334 65.2627 95.5928 65.9897C96.0631 66.7167 96.3037 67.6933 96.3147 68.9194V73.7696H94.2638V72.5977C93.1372 73.0643 92.0653 73.4278 91.0481 73.6882C90.0418 73.9486 88.9589 74.0788 87.7995 74.0788C86.2901 74.0788 85.1526 73.813 84.3869 73.2813C83.6322 72.7388 83.2548 71.9196 83.2548 70.8237C83.2548 69.6626 83.7908 68.8163 84.8627 68.2846C85.9346 67.7529 87.3347 67.4871 89.0629 67.4871C90.7473 67.4871 92.4809 67.7421 94.2638 68.2521C94.2419 67.243 93.7771 66.5702 92.8692 66.2339C91.9723 65.8866 90.9879 65.713 89.916 65.713C89.1394 65.713 88.3409 65.7727 87.5206 65.8921C86.7112 66.0114 85.8088 66.2284 84.8135 66.5431L84.0588 64.9318C85.1088 64.6063 86.1151 64.3621 87.0776 64.1994C88.0511 64.0366 89.0629 63.9552 90.1129 63.9552ZM88.423 72.321C89.1668 72.321 90.0746 72.1908 91.1465 71.9304C92.2294 71.6592 93.2685 71.3391 94.2638 70.9701V69.9448C93.4763 69.7169 92.6723 69.5379 91.852 69.4077C91.0426 69.2666 90.1566 69.1961 89.1941 69.1961C88.0237 69.1961 87.1104 69.3263 86.4542 69.5867C85.7979 69.8471 85.4697 70.2594 85.4697 70.8237C85.4697 71.4096 85.7159 71.8056 86.2081 72.0118C86.7003 72.218 87.4386 72.321 88.423 72.321Z" fill="#21253E"/>
<path d="M97.8716 73.7696V60.7489H99.9225V73.7696H97.8716Z" fill="#21253E"/>
<path d="M99.9336 8.16111L89.2837 2L89.2729 14.3244L99.9336 8.16111Z" fill="#D4DBE8"/>
<path d="M78.6484 33.3323L99.9397 21.125V33.3221L89.2813 39.436L78.6484 33.3323Z" fill="#21253E"/>
<path d="M78.618 20.3565L99.939 8.12109L99.939 20.3294L78.6172 32.5674L78.618 20.3565Z" fill="#9099A8"/>
</svg>
