<svg xmlns="http://www.w3.org/2000/svg" width="24" height="40" viewBox="0 0 24 40" fill="none"><path d="M23.0586 20L23.0586 32.5815L10.4585 39.9995L0.00183237 33.5997L0.627132 33.212L11.1895 26.9816L11.2058 26.9915L23.0586 20Z" fill="#0E1228"></path><mask id="path-2-inside-1_777_14999" fill="white">
<path d="M23.0547 6.20312V18.7607L13.127 12.9258L12.502 12.5391V0L23.0547 6.20312Z"></path>
</mask><path d="M23.0547 6.20312H23.4205V5.99382L23.2401 5.88776L23.0547 6.20312ZM23.0547 18.7607L22.8693 19.0761L23.4205 19.4001V18.7607H23.0547ZM13.127 12.9258L12.9344 13.2369L12.9416 13.2412L13.127 12.9258ZM12.502 12.5391H12.1361V12.7429L12.3095 12.8501L12.502 12.5391ZM12.502 0L12.6873 -0.315366L12.1361 -0.63937V0H12.502ZM23.0547 6.20312H22.6889V18.7607H23.0547H23.4205V6.20312H23.0547ZM23.0547 18.7607L23.24 18.4454L13.3123 12.6104L13.127 12.9258L12.9416 13.2412L22.8693 19.0761L23.0547 18.7607ZM13.127 12.9258L13.3194 12.6147L12.6944 12.228L12.502 12.5391L12.3095 12.8501L12.9345 13.2369L13.127 12.9258ZM12.502 12.5391H12.8678V0H12.502H12.1361V12.5391H12.502ZM12.502 0L12.3166 0.315366L22.8693 6.51849L23.0547 6.20312L23.2401 5.88776L12.6873 -0.315366L12.502 0Z" fill="#0E1228" mask="url(#path-2-inside-1_777_14999)"></path><path d="M23.0586 6.20312L23.0586 18.7644L0.00183182 32.3641L0.00183237 19.7826L0.627132 19.3949L11.1895 13.1646L11.2058 13.1744L23.0586 6.20312Z" fill="#0E1228"></path></svg>